<svg width="88" height="88" viewBox="0 0 88 88" fill="none" xmlns="http://www.w3.org/2000/svg">
  <defs>
    <linearGradient id="studyos-mark-gradient" x1="8" y1="8" x2="80" y2="80" gradientUnits="userSpaceOnUse">
      <stop stop-color="#6D23F9" />
      <stop offset="1" stop-color="#8B5CFF" />
    </linearGradient>
  </defs>
  <rect x="4" y="4" width="80" height="80" rx="24" fill="url(#studyos-mark-gradient)" />
  <path d="M56 22H34.5C29.2 22 25 26.2 25 31.4C25 36.6 29.2 40.8 34.5 40.8H45.8C49.2 40.8 52 43.6 52 47C52 50.4 49.2 53.2 45.8 53.2H24" stroke="white" stroke-width="8" stroke-linecap="round" stroke-linejoin="round" />
  <path d="M31 66H52.5C57.8 66 62 61.8 62 56.6C62 51.4 57.8 47.2 52.5 47.2H41.2C37.8 47.2 35 44.4 35 41C35 37.6 37.8 34.8 41.2 34.8H63" stroke="white" stroke-width="8" stroke-linecap="round" stroke-linejoin="round" />
</svg>
