<svg width="256" height="256" viewBox="0 0 256 256" fill="none" xmlns="http://www.w3.org/2000/svg">
  <defs>
    <linearGradient id="icon-bg" x1="28" y1="24" x2="226" y2="232" gradientUnits="userSpaceOnUse">
      <stop stop-color="#FFF4DE" />
      <stop offset="0.58" stop-color="#F1C8AF" />
      <stop offset="1" stop-color="#D4E8D7" />
    </linearGradient>
    <radialGradient id="icon-face" cx="0" cy="0" r="1" gradientUnits="userSpaceOnUse" gradientTransform="translate(128 98) rotate(90) scale(78 70)">
      <stop stop-color="#FFF8F1" />
      <stop offset="1" stop-color="#F5C9B2" />
    </radialGradient>
  </defs>

  <rect x="16" y="16" width="224" height="224" rx="68" fill="url(#icon-bg)" />
  <ellipse cx="128" cy="203" rx="54" ry="14" fill="#6F4F59" opacity="0.18" />

  <path d="M74 120C58 98 48 78 56 60C66 40 88 40 108 60" stroke="#6B4A52" stroke-width="14" stroke-linecap="round" />
  <path d="M182 120C198 98 208 78 200 60C190 40 168 40 148 60" stroke="#6B4A52" stroke-width="14" stroke-linecap="round" />

  <path d="M76 70C76 39 99 18 128 18C157 18 180 39 180 70V132C180 172 156 204 128 204C100 204 76 172 76 132V70Z" fill="#F2BFA4" />
  <path d="M88 72C88 49 106 32 128 32C150 32 168 49 168 72V128C168 159 149 184 128 184C107 184 88 159 88 128V72Z" fill="url(#icon-face)" />

  <circle cx="110" cy="100" r="8" fill="#4B3439" />
  <circle cx="146" cy="100" r="8" fill="#4B3439" />
  <circle cx="96" cy="116" r="8" fill="#F2AEB2" opacity="0.72" />
  <circle cx="160" cy="116" r="8" fill="#F2AEB2" opacity="0.72" />
  <path d="M113 132C120 140 136 140 143 132" stroke="#4B3439" stroke-width="6" stroke-linecap="round" />

  <rect x="70" y="138" width="116" height="56" rx="18" fill="#FDF9F3" stroke="#6B4A52" stroke-width="7" />
  <path d="M128 138V194" stroke="#E4CDB9" stroke-width="4" />
  <path d="M86 158H118" stroke="#DAC0A6" stroke-width="4" stroke-linecap="round" />
  <path d="M138 158H170" stroke="#DAC0A6" stroke-width="4" stroke-linecap="round" />

  <path d="M104 28C103 18 114 12 122 20C128 12 141 14 142 26C143 38 128 48 104 28Z" fill="#B6D7BE" stroke="#6B4A52" stroke-width="4" stroke-linejoin="round" />
  <path d="M188 48L193 60L205 65L193 70L188 82L183 70L171 65L183 60L188 48Z" fill="white" opacity="0.9" />
</svg>
